<svg width="182" height="64" viewBox="0 0 182 64" fill="none" xmlns="http://www.w3.org/2000/svg">
<circle cx="43.5556" cy="35.2305" r="28.4444" fill="#E5E5E5"/>
<mask id="mask0_1_13" style="mask-type:alpha" maskUnits="userSpaceOnUse" x="15" y="6" width="57" height="58">
<circle cx="43.5556" cy="35.2305" r="28.4444" fill="#E5E5E5"/>
</mask>
<g mask="url(#mask0_1_13)">
<circle cx="33.7778" cy="35.2305" r="28.4444" fill="#C4C4C4"/>
</g>
<path d="M25.8271 8.72265C27.0754 7.24091 29.4905 8.22216 29.3516 10.1546L29.3414 10.2956C29.2793 11.1598 29.7807 11.9658 30.5834 12.2919L30.7144 12.3451C32.5093 13.0744 32.3224 15.6745 30.4416 16.1395L30.3044 16.1735C29.4633 16.3814 28.8517 17.1074 28.7896 17.9716L28.7795 18.1126C28.6406 20.045 26.1099 20.6707 25.0865 19.0257L25.0118 18.9057C24.5541 18.17 23.6747 17.8127 22.8336 18.0207L22.6964 18.0546C20.8156 18.5196 19.4385 16.3062 20.6867 14.8245L20.7778 14.7164C21.336 14.0538 21.4041 13.107 20.9464 12.3713L20.8717 12.2513C19.8482 10.6063 21.5278 8.6126 23.3227 9.34188L23.4537 9.39508C24.2564 9.72123 25.1778 9.49339 25.7361 8.83074L25.8271 8.72265Z" fill="#FEE501"/>
<path d="M10.535 35.302C10.0658 33.4223 12.2762 32.0403 13.7607 33.2852L13.869 33.3761C14.5329 33.9328 15.4798 33.9988 16.2144 33.5394L16.3343 33.4645C17.977 32.4374 19.9744 34.1125 19.2491 35.909L19.1962 36.0401C18.8719 36.8436 19.1017 37.7645 19.7656 38.3213L19.8739 38.4121C21.3584 39.6571 20.3825 42.0743 18.4498 41.9397L18.3088 41.9299C17.4444 41.8696 16.6396 42.3728 16.3152 43.1763L16.2623 43.3074C15.537 45.1039 12.9365 44.9228 12.4673 43.043L12.433 42.9059C12.2232 42.0652 11.4959 41.4553 10.6316 41.3951L10.4906 41.3852C8.55781 41.2506 7.92649 38.7214 9.56926 37.6943L9.6891 37.6193C10.4238 37.16 10.7791 36.2798 10.5693 35.4392L10.535 35.302Z" fill="#FEE501"/>
<path d="M95.86 27.02C96.2867 27.02 96.7533 27.12 97.26 27.32C97.7267 27.5067 97.96 27.86 97.96 28.38V42.16C97.96 42.8 97.5667 43.12 96.78 43.12C95.9933 43.12 95.6 42.8 95.6 42.16V31.88L95.02 31.82L94.22 34.42L91.82 42.42C91.6733 42.8867 91.3133 43.1133 90.74 43.1C90.4867 43.0867 90.2667 43.02 90.08 42.9C89.8933 42.78 89.7667 42.6067 89.7 42.38L88.26 37.72C87.9667 36.8 87.6733 35.8667 87.38 34.92C87.0867 33.96 86.7667 32.9 86.42 31.74L85.84 31.82V42.16C85.84 42.8 85.4467 43.12 84.66 43.12C83.8733 43.12 83.48 42.8 83.48 42.16V28.38C83.48 27.8733 83.7133 27.52 84.18 27.32C84.6733 27.12 85.1467 27.0267 85.6 27.04C85.8 27.04 86.0067 27.0667 86.22 27.12C86.4333 27.1733 86.6333 27.2533 86.82 27.36C87.0067 27.4533 87.1733 27.58 87.32 27.74C87.4667 27.8867 87.58 28.06 87.66 28.26L90.8 38.96C91.0267 38.1733 91.2667 37.32 91.52 36.4C91.7733 35.48 92.0333 34.5467 92.3 33.6C92.5667 32.6533 92.8267 31.72 93.08 30.8C93.3467 29.8667 93.5933 29 93.82 28.2C93.9 28.0133 94.0133 27.8467 94.16 27.7C94.3067 27.5533 94.4733 27.4333 94.66 27.34C94.8467 27.2333 95.04 27.1533 95.24 27.1C95.4533 27.0467 95.66 27.02 95.86 27.02Z" fill="white"/>
<path d="M107.008 30.96C107.354 30.96 107.708 31.0333 108.068 31.18C108.441 31.3267 108.801 31.5133 109.148 31.74H109.128C109.474 31.9933 109.741 32.3267 109.928 32.74C110.114 33.14 110.208 33.6067 110.208 34.14V39.82C110.208 40.9133 109.848 41.72 109.128 42.24C108.421 42.7467 107.714 43 107.008 43H103.808C103.461 43 103.108 42.94 102.748 42.82C102.388 42.7 102.034 42.5067 101.688 42.24C100.968 41.7333 100.608 40.9267 100.608 39.82V34.14C100.608 33.6067 100.701 33.14 100.888 32.74C101.074 32.3267 101.341 31.9933 101.688 31.74H101.668C102.001 31.5133 102.354 31.3267 102.728 31.18C103.101 31.0333 103.461 30.96 103.808 30.96H107.008ZM106.648 41.12C107.141 41.12 107.488 40.98 107.688 40.7C107.901 40.42 108.008 40.12 108.008 39.8V34.16C108.008 33.8267 107.901 33.5267 107.688 33.26C107.488 32.98 107.141 32.84 106.648 32.84H104.168C103.674 32.84 103.321 32.98 103.108 33.26C102.908 33.5267 102.808 33.8267 102.808 34.16V39.8C102.808 40.12 102.908 40.42 103.108 40.7C103.321 40.98 103.674 41.12 104.168 41.12H106.648Z" fill="white"/>
<path d="M119.136 30.96C119.483 30.96 119.836 31.0333 120.196 31.18C120.57 31.3267 120.93 31.5133 121.276 31.74H121.256C121.603 31.9933 121.87 32.3267 122.056 32.74C122.243 33.14 122.336 33.6067 122.336 34.14V39.82C122.336 40.9133 121.976 41.72 121.256 42.24C120.55 42.7467 119.843 43 119.136 43H115.936C115.59 43 115.236 42.94 114.876 42.82C114.516 42.7 114.163 42.5067 113.816 42.24C113.096 41.7333 112.736 40.9267 112.736 39.82V34.14C112.736 33.6067 112.83 33.14 113.016 32.74C113.203 32.3267 113.47 31.9933 113.816 31.74H113.796C114.13 31.5133 114.483 31.3267 114.856 31.18C115.23 31.0333 115.59 30.96 115.936 30.96H119.136ZM118.776 41.12C119.27 41.12 119.616 40.98 119.816 40.7C120.03 40.42 120.136 40.12 120.136 39.8V34.16C120.136 33.8267 120.03 33.5267 119.816 33.26C119.616 32.98 119.27 32.84 118.776 32.84H116.296C115.803 32.84 115.45 32.98 115.236 33.26C115.036 33.5267 114.936 33.8267 114.936 34.16V39.8C114.936 40.12 115.036 40.42 115.236 40.7C115.45 40.98 115.803 41.12 116.296 41.12H118.776Z" fill="white"/>
<path d="M127.065 42.16C127.065 42.8 126.699 43.12 125.965 43.12C125.232 43.12 124.865 42.8 124.865 42.16V34.12C124.865 33.5733 124.952 33.1 125.125 32.7C125.299 32.3 125.572 31.9733 125.945 31.72C126.652 31.2133 127.359 30.96 128.065 30.96H131.285C131.965 30.96 132.672 31.2133 133.405 31.72C134.125 32.2267 134.485 33.0267 134.485 34.12V42.16C134.485 42.8 134.119 43.12 133.385 43.12C132.652 43.12 132.285 42.8 132.285 42.16V34.3C132.285 33.9533 132.179 33.62 131.965 33.3L131.985 33.32C131.812 33 131.459 32.84 130.925 32.84H128.425C127.879 32.84 127.519 33 127.345 33.32C127.159 33.6 127.065 33.9267 127.065 34.3V42.16Z" fill="white"/>
<path d="M139.272 39.66V42.2C139.272 42.8267 138.906 43.14 138.172 43.14C137.439 43.14 137.072 42.8267 137.072 42.2V27.96C137.072 27.32 137.439 27 138.172 27C138.906 27 139.272 27.32 139.272 27.96V36.44C139.606 36.04 139.972 35.6133 140.372 35.16C140.786 34.6933 141.192 34.2267 141.592 33.76C142.006 33.28 142.412 32.8133 142.812 32.36C143.212 31.8933 143.586 31.46 143.932 31.06V31.08C144.172 30.8 144.412 30.66 144.652 30.66C144.786 30.66 144.912 30.6933 145.032 30.76C145.166 30.8133 145.306 30.8933 145.452 31H145.432C145.752 31.2667 145.912 31.5333 145.912 31.8C145.912 31.8933 145.892 32 145.852 32.12C145.812 32.2267 145.746 32.32 145.652 32.4L139.272 39.66ZM145.952 41.66C146.046 41.8333 146.092 42.0133 146.092 42.2C146.092 42.5467 145.892 42.8067 145.492 42.98C145.226 43.14 144.986 43.22 144.772 43.22C144.626 43.22 144.486 43.1667 144.352 43.06C144.219 42.9667 144.112 42.8467 144.032 42.7L142.032 38.84C141.912 38.64 141.852 38.44 141.852 38.24C141.852 37.9067 142.026 37.6267 142.372 37.4C142.466 37.3333 142.559 37.2733 142.652 37.22C142.759 37.1667 142.872 37.1267 142.992 37.1C143.139 37.0733 143.279 37.1 143.412 37.18C143.546 37.26 143.659 37.3667 143.752 37.5L145.952 41.66Z" fill="white"/>
<path d="M154.236 36C154.57 36 154.923 36.08 155.296 36.24C155.683 36.3867 156.043 36.5733 156.376 36.8H156.356C156.703 37.0533 156.97 37.38 157.156 37.78C157.343 38.18 157.436 38.66 157.436 39.22V39.82C157.436 40.9133 157.076 41.72 156.356 42.24C156.01 42.5067 155.656 42.7 155.296 42.82C154.936 42.94 154.583 43 154.236 43H150.836C150.49 43 150.136 42.94 149.776 42.82C149.416 42.7 149.063 42.5067 148.716 42.24C147.996 41.7333 147.636 40.9267 147.636 39.82V39.58C147.636 39.0067 148.003 38.7267 148.736 38.74C149.483 38.74 149.856 39.02 149.856 39.58V39.8C149.856 40.12 149.956 40.42 150.156 40.7C150.356 40.98 150.71 41.12 151.216 41.12H153.856C154.363 41.12 154.716 40.98 154.916 40.7C155.116 40.42 155.216 40.12 155.216 39.8V39.24C155.216 39.0667 155.19 38.9 155.136 38.74C155.096 38.58 155.023 38.44 154.916 38.32C154.81 38.1867 154.67 38.08 154.496 38C154.323 37.92 154.11 37.88 153.856 37.88H150.936C150.256 37.88 149.543 37.64 148.796 37.16C148.09 36.7067 147.736 35.9267 147.736 34.82V34.14C147.736 33.6067 147.83 33.14 148.016 32.74C148.203 32.3267 148.47 31.9933 148.816 31.74H148.796C149.13 31.5133 149.483 31.3267 149.856 31.18C150.23 31.0333 150.59 30.96 150.936 30.96H154.136C154.483 30.96 154.836 31.0333 155.196 31.18C155.57 31.3267 155.93 31.5133 156.276 31.74H156.256C156.603 31.9933 156.87 32.3267 157.056 32.74C157.243 33.14 157.336 33.6067 157.336 34.14V34.32C157.336 34.6 157.243 34.8067 157.056 34.94C156.87 35.06 156.596 35.1267 156.236 35.14C155.503 35.1533 155.136 34.88 155.136 34.32V34.16C155.136 33.8267 155.03 33.5267 154.816 33.26C154.616 32.98 154.27 32.84 153.776 32.84H151.296C150.803 32.84 150.45 32.98 150.236 33.26C150.036 33.5267 149.936 33.8267 149.936 34.16V34.64C149.936 34.9867 150.036 35.3 150.236 35.58C150.45 35.86 150.803 36 151.296 36H154.236Z" fill="white"/>
<path d="M162.241 39.8C162.241 40.12 162.341 40.42 162.541 40.7C162.754 40.98 163.108 41.12 163.601 41.12H166.101C166.594 41.12 166.941 41 167.141 40.76C167.354 40.5067 167.461 40.22 167.461 39.9V39.68C167.461 39.0533 167.828 38.74 168.561 38.74C169.294 38.74 169.661 39.0533 169.661 39.68V39.92C169.661 40.48 169.568 40.94 169.381 41.3C169.208 41.66 168.941 41.9733 168.581 42.24C167.874 42.7467 167.168 43 166.461 43H163.101C162.394 43 161.708 42.7467 161.041 42.24C160.721 41.9733 160.474 41.64 160.301 41.24C160.128 40.8267 160.041 40.3533 160.041 39.82V34.12C160.041 33.04 160.374 32.24 161.041 31.72C161.374 31.48 161.714 31.2933 162.061 31.16C162.421 31.0133 162.768 30.94 163.101 30.94H166.461C166.781 30.94 167.134 31.0067 167.521 31.14C167.908 31.26 168.268 31.4267 168.601 31.64C168.921 31.8667 169.174 32.18 169.361 32.58C169.561 32.98 169.661 33.4533 169.661 34V36.7C169.661 37.0067 169.568 37.28 169.381 37.52C169.208 37.76 168.881 37.88 168.401 37.88H164.081C163.601 37.88 163.348 37.5667 163.321 36.94C163.321 36.3133 163.574 36 164.081 36H167.481L167.461 34.14C167.461 33.8067 167.354 33.5067 167.141 33.24C166.941 32.96 166.594 32.82 166.101 32.82H163.601C163.108 32.82 162.754 32.96 162.541 33.24C162.341 33.5067 162.241 33.8067 162.241 34.14V39.8Z" fill="white"/>
<path d="M174.409 39.8C174.409 40.12 174.509 40.42 174.709 40.7C174.922 40.98 175.276 41.12 175.769 41.12H178.269C178.762 41.12 179.109 41 179.309 40.76C179.522 40.5067 179.629 40.22 179.629 39.9V39.68C179.629 39.0533 179.996 38.74 180.729 38.74C181.462 38.74 181.829 39.0533 181.829 39.68V39.92C181.829 40.48 181.736 40.94 181.549 41.3C181.376 41.66 181.109 41.9733 180.749 42.24C180.042 42.7467 179.336 43 178.629 43H175.269C174.562 43 173.876 42.7467 173.209 42.24C172.889 41.9733 172.642 41.64 172.469 41.24C172.296 40.8267 172.209 40.3533 172.209 39.82V34.12C172.209 33.04 172.542 32.24 173.209 31.72C173.542 31.48 173.882 31.2933 174.229 31.16C174.589 31.0133 174.936 30.94 175.269 30.94H178.629C178.949 30.94 179.302 31.0067 179.689 31.14C180.076 31.26 180.436 31.4267 180.769 31.64C181.089 31.8667 181.342 32.18 181.529 32.58C181.729 32.98 181.829 33.4533 181.829 34V36.7C181.829 37.0067 181.736 37.28 181.549 37.52C181.376 37.76 181.049 37.88 180.569 37.88H176.249C175.769 37.88 175.516 37.5667 175.489 36.94C175.489 36.3133 175.742 36 176.249 36H179.649L179.629 34.14C179.629 33.8067 179.522 33.5067 179.309 33.24C179.109 32.96 178.762 32.82 178.269 32.82H175.769C175.276 32.82 174.922 32.96 174.709 33.24C174.509 33.5067 174.409 33.8067 174.409 34.14V39.8Z" fill="white"/>
</svg>
